<svg xmlns="http://www.w3.org/2000/svg" width="20" height="20" viewBox="0 0 24 24" fill="none" stroke-width="2.2" stroke-linecap="round" stroke-linejoin="round">
  <defs>
    <linearGradient id="gr" x1="3" y1="3" x2="21" y2="21" gradientUnits="userSpaceOnUse">
      <stop offset="0" stop-color="#3B82F6"/>
      <stop offset="1" stop-color="#06B6D4"/>
    </linearGradient>
  </defs>
  <g stroke="url(#gr)">
    <path d="M9 3a3 3 0 0 0-3 3v1a4 4 0 0 0-2 7.5A4 4 0 0 0 8 21h1V3Z"/>
    <path d="M15 3a3 3 0 0 1 3 3v1a4 4 0 0 1 2 7.5A4 4 0 0 1 16 21h-1V3Z"/>
    <path d="M9 8H7"/>
    <path d="M15 8h2"/>
    <path d="M9 15H7"/>
    <path d="M15 15h2"/>
    <circle cx="12" cy="3.5" r=".8" fill="#3B82F6" stroke="none"/>
  </g>
</svg>
